<svg width="308.05625px" height="206px" xmlns="http://www.w3.org/2000/svg" viewBox="95.97187500000001 -28 308.05625 206" style="background: rgba(0, 0, 0, 0);" preserveAspectRatio="xMidYMid"><defs><filter id="editing-extrusion" x="-100%" y="-100%" width="300%" height="300%"><feFlood result="color1" flood-color="#444"></feFlood><feConvolveMatrix order="8,8" divisor="1" kernelMatrix="1 0 0 0 0 0 0 0 0 1 0 0 0 0 0 0 0 0 1 0 0 0 0 0 0 0 0 1 0 0 0 0 0 0 0 0 1 0 0 0 0 0 0 0 0 1 0 0 0 0 0 0 0 0 1 0 0 0 0 0 0 0 0 1" in="SourceAlpha" result="extrude"></feConvolveMatrix><feComposite in="color1" in2="extrude" result="comp-extrude" operator="in"></feComposite><feOffset dx="4" dy="4" in="comp-extrude" result="offset-extrude"></feOffset><feMerge><feMergeNode in="offset-extrude"></feMergeNode><feMergeNode in="SourceGraphic"></feMergeNode></feMerge></filter></defs><g filter="url(#editing-extrusion)"><g transform="translate(144.2999832034111, 115.30000114440918)"><path d="M33 1.40L33 1.40Q23.40 1.40 14.85-0.25L14.85-0.25L14.85-0.25Q6.30-1.90 1.70-4L1.70-4L1.70-23.80L23.70-23.80L23.70-23.80Q23.70-20.70 25.10-19.30L25.10-19.30L25.10-19.30Q26.50-17.90 30.20-17.90L30.20-17.90L30.20-17.90Q33.30-17.90 34.65-18.85L34.65-18.85L34.65-18.85Q36-19.80 36-21.70L36-21.70L36-21.70Q36-23.30 34.70-24.45L34.70-24.45L34.70-24.45Q33.40-25.60 30.20-26.80L30.20-26.80L21.60-29.80L21.60-29.80Q10.50-34 5.65-39.70L5.65-39.70L5.65-39.70Q0.80-45.40 0.80-55.10L0.80-55.10L0.80-55.10Q0.80-66.90 8.55-73.05L8.55-73.05L8.55-73.05Q16.30-79.20 34.40-79.20L34.40-79.20L34.40-79.20Q43.10-79.20 50.75-77.45L50.75-77.45L50.75-77.45Q58.40-75.70 63.10-72.80L63.10-72.80L63.10-54.90L43.10-54.90L43.10-54.90Q43.10-59.90 36.90-59.90L36.90-59.90L36.90-59.90Q33.90-59.90 32.65-59.15L32.65-59.15L32.65-59.15Q31.40-58.40 31.40-56.50L31.40-56.50L31.40-56.50Q31.40-54.80 32.85-53.80L32.85-53.80L32.85-53.80Q34.30-52.80 37.60-51.70L37.60-51.70L46.30-48.70L46.30-48.70Q56.90-45.10 61.75-39.35L61.75-39.35L61.75-39.35Q66.60-33.60 66.60-24.30L66.60-24.30L66.60-24.30Q66.60-11.60 58.05-5.10L58.05-5.10L58.05-5.10Q49.50 1.40 33 1.40L33 1.40ZM69.40 0L69.40-16.40L74.40-16.40L74.40-61.40L69.40-61.40L69.40-77.80L113.30-77.80L113.30-77.80Q126.20-77.80 133-72.25L133-72.25L133-72.25Q139.80-66.70 139.80-54.30L139.80-54.30L139.80-54.30Q139.80-41.90 133-36.35L133-36.35L133-36.35Q126.20-30.80 113.30-30.80L113.30-30.80L102.40-30.80L102.40-16.40L112-16.40L112 0L69.40 0ZM102.40-45L105.80-45L105.80-45Q111.60-45 111.60-51.40L111.60-51.40L111.60-55L111.60-55Q111.60-58.30 110.15-59.85L110.15-59.85L110.15-59.85Q108.70-61.40 105.80-61.40L105.80-61.40L102.40-61.40L102.40-45ZM189.70-77.80L206.60-16.40L210.60-16.40L210.60 0L171.40 0L171.40-16.40L177.40-16.40L175.80-24.40L162.20-24.40L160.60-16.40L166.60-16.40L166.60 0L132.40 0L132.40-16.40L136.40-16.40L153.30-77.80L189.70-77.80ZM168.50-54.90L164.40-35L173.60-35L169.50-54.90L168.50-54.90Z" fill="#ccc"></path></g></g><style>text {
  font-size: 64px;
  font-family: Arial Black;
  dominant-baseline: central;
  text-anchor: middle;
}</style></svg>